<svg xmlns="http://www.w3.org/2000/svg" viewBox="0 0 512 512" role="img" aria-labelledby="mcubeLogoTitle">
  <title id="mcubeLogoTitle">M-Cube Mobile logo</title>
  <defs>
    <radialGradient id="mcubeLogoGlow" cx="35%" cy="28%" r="72%">
      <stop offset="0%" stop-color="#1843d7" />
      <stop offset="52%" stop-color="#0a1f97" />
      <stop offset="100%" stop-color="#040f57" />
    </radialGradient>
    <filter id="mcubeShadow" x="-20%" y="-20%" width="140%" height="140%">
      <feDropShadow dx="0" dy="18" stdDeviation="22" flood-color="#061456" flood-opacity="0.24" />
    </filter>
  </defs>
  <circle cx="256" cy="208" r="170" fill="url(#mcubeLogoGlow)" filter="url(#mcubeShadow)" />
  <circle cx="256" cy="208" r="168" fill="none" stroke="#e6c57a" stroke-opacity="0.26" stroke-width="4" />
  <g fill="none" stroke="#e6c57a" stroke-linecap="round" stroke-linejoin="round" stroke-width="12">
    <path d="M256 102l46 27-46 27-46-27 46-27Z" />
    <path d="M230 118l26-16 26 16" />
    <path d="M216 149v83l36 21v-73" />
    <path d="M296 149v83l-36 21v-73" />
    <path d="M196 138v108l48 29" />
    <path d="M316 138v108l-48 29" />
    <path d="M256 157v116" />
    <path d="M240 179v82" />
    <path d="M272 179v82" />
    <path d="M256 289v34" />
  </g>
  <text x="256" y="390" text-anchor="middle" fill="#f8edd6" font-family="Poppins, Arial, sans-serif" font-size="56" font-weight="700" letter-spacing="8">
    MCUBE
  </text>
  <text x="256" y="425" text-anchor="middle" fill="#e6c57a" font-family="Poppins, Arial, sans-serif" font-size="22" font-weight="600" letter-spacing="10">
    MOBILES
  </text>
</svg>
